# xmcd
#
# Track frame offsets:
#	150
#	13927
#	22995
#	38972
#	52470
#	70755
#	85722
#	102930
#	116870
#	130120
#	143742
#	157320
#	171902
#	187402
#	203282
#	218117
#	232680
#	250775
#
# Disc length: 3634
#
# Revision: 1
# Processed by: cddbd v1.5.1PL0 Copyright (c) Steve Scherf et al.
# Submitted via: CDex 1.51
# Normalized: r0:TDELIM( - )
#
DISCID=010e3012
DTITLE=Jazz - Best of Jazz 1-1
DYEAR=1900
DGENRE=Jazz
TTITLE0=Bessie Smith - Alexander's Ragtime Band
TTITLE1=Nat King Cole - Paper Moon
TTITLE2=Louis Armstrong - Mack the Knif
TTITLE3=Marilyin Monroe - Marry has a little lam
TTITLE4=Dakoto Station - Cry me a river
TTITLE5=Joe Williams - Hurry on down
TTITLE6=Betty Roche - All my life
TTITLE7=Marilyn Monroe - Tarv'lin' all aone
TTITLE8=Billie Holiday - God bles the child
TTITLE9=Ella Fitzgelard - We can't go on this way
TTITLE10=Sarah Vaughan - Embraceable you
TTITLE11=Joe Turner - Flip, flop and fly
TTITLE12=Bing Crosby - P.S. I love you
TTITLE13=Nina Simone - Sugar in my bow
TTITLE14=Cab Calloway - Minnie the Mooncher
TTITLE15=Ruth Brown - Fine Brown frame
TTITLE16=Carmen McRae - All the things you are
TTITLE17=Ray Charles - Georgia on my mind
EXTD=
EXTT0=
EXTT1=
EXTT2=
EXTT3=
EXTT4=
EXTT5=
EXTT6=
EXTT7=
EXTT8=
EXTT9=
EXTT10=
EXTT11=
EXTT12=
EXTT13=
EXTT14=
EXTT15=
EXTT16=
EXTT17=
PLAYORDER=
